<svg width="330" height="343" viewBox="0 0 330 343" fill="none" xmlns="http://www.w3.org/2000/svg">
<path d="M165 343C256.074 343 329.903 325.861 329.903 304.719C329.903 283.577 256.074 266.438 165 266.438C73.9265 266.438 0.0968018 283.577 0.0968018 304.719C0.0968018 325.861 73.9265 343 165 343Z" fill="#B8D5DC"/>
<path d="M140.269 158.111C137.873 159.57 136.692 159.238 136.114 158.294C135.536 157.35 135.78 156.15 138.176 154.691C142.541 152.034 145.697 152.459 145.697 152.459C145.697 152.459 144.697 155.416 140.269 158.111Z" fill="#ACC9C5"/>
<path d="M140.407 223.871L139.875 223.831C139.881 223.749 140.377 215.496 137.356 203.456C134.568 192.347 128.129 175.651 113.287 159.197L113.681 158.841C128.605 175.387 135.076 192.179 137.878 203.353C140.915 215.468 140.413 223.787 140.407 223.871Z" fill="#ACC9C5"/>
<path d="M128.393 179.671L127.938 179.391C138.023 162.949 131.323 143.241 131.255 143.045L131.757 142.872C131.828 143.071 138.611 163.011 128.393 179.671Z" fill="#ACC9C5"/>
<path d="M120.193 171.132C114.785 171.205 110.64 168.55 110.593 168.52L110.881 168.075C110.934 168.108 116.244 171.504 122.616 170.371L122.713 170.895C121.852 171.048 121.007 171.121 120.193 171.132Z" fill="#ACC9C5"/>
<path d="M112.869 156.23C115.74 158.735 116.009 160.153 115.288 160.982C114.566 161.811 113.129 161.738 110.258 159.233C105.029 154.668 103.808 150.961 103.808 150.961C103.808 150.961 107.563 151.599 112.869 156.23Z" fill="#ACC9C5"/>
<path d="M111.985 166.777C115.47 168.305 116.153 169.579 115.718 170.59C115.281 171.601 113.892 171.966 110.407 170.438C104.058 167.654 101.779 164.478 101.779 164.478C101.779 164.478 105.544 163.954 111.985 166.777Z" fill="#ACC9C5"/>
<path d="M125.46 162.568C126.159 165.301 125.501 166.33 124.433 166.596C123.366 166.863 122.29 166.265 121.591 163.531C120.317 158.552 121.637 155.664 121.637 155.664C121.637 155.664 124.168 157.517 125.46 162.568Z" fill="#ACC9C5"/>
<path d="M132.835 140.697C133.796 144.377 133.217 145.693 132.151 145.964C131.085 146.236 129.934 145.362 128.972 141.68C127.221 134.975 128.305 131.241 128.305 131.241C128.305 131.241 131.058 133.894 132.835 140.697Z" fill="#ACC9C5"/>
<g opacity="0.6">
<path opacity="0.6" d="M239.931 208.86C250.171 181.742 266.376 147.901 282.042 153.011C300.92 159.171 274.492 188.938 256.43 215.474C249.95 224.993 233.406 226.142 239.931 208.86Z" fill="#ACC9C5"/>
</g>
<g opacity="0.6">
<path opacity="0.6" d="M255.349 238.191C271.665 221.713 294.532 202.275 304.334 211.167C316.145 221.882 287.121 234.976 265.27 248.457C257.432 253.292 244.95 248.693 255.349 238.191Z" fill="#ACC9C5"/>
</g>
<path d="M308.465 264.568C298.595 266.832 300.406 281.869 289.1 279.203C279.538 276.942 278.725 276.067 275.455 278.864C274.334 279.823 273.371 280.953 272.562 282.19C271.591 283.67 269.709 285.858 266.818 286.401C249.16 289.72 224.678 263.687 242.975 248.983C244.296 247.922 246.233 247.496 248.377 247.133C260.009 245.176 263.699 250.512 272.725 236.604C281.755 222.693 294.432 242.351 302.239 241.567C310.045 240.783 316.906 238.35 323.087 246.606C329.266 254.871 318.336 262.311 308.465 264.568Z" fill="#CCD39C"/>
<path d="M248.823 268.059L248.445 267.509C248.686 267.341 273.217 250.733 324.514 248.957L324.537 249.626C273.432 251.393 249.062 267.891 248.823 268.059Z" fill="#C2C68E"/>
<path d="M280.528 247.785C273.693 241.736 272.448 236.888 272.399 236.685L273.045 236.525C273.058 236.572 274.307 241.389 280.968 247.281L280.528 247.785Z" fill="#C2C68E"/>
<path d="M281.779 254.993C279.841 251.645 279.969 246.789 282.145 240.948C283.775 236.574 286.006 233.133 286.029 233.099L286.585 233.467C286.497 233.601 277.899 246.96 282.354 254.658L281.779 254.993Z" fill="#C2C68E"/>
<path d="M295.271 253.679C294.458 253.01 294.018 252.575 293.998 252.555L294.468 252.083C294.561 252.176 303.841 261.339 317.382 260.777L317.409 261.445C306.498 261.898 298.299 256.17 295.271 253.679Z" fill="#C2C68E"/>
<path d="M302.094 269.084C298.965 265.65 298.044 262.195 297.823 259.902C297.583 257.405 298.084 255.739 298.105 255.668L298.742 255.867C298.722 255.931 296.855 262.348 302.585 268.634L302.094 269.084Z" fill="#C2C68E"/>
<path d="M153.478 164.9C153.278 162.839 154.112 162.139 155.215 162.031C156.317 161.923 157.271 162.447 157.471 164.509C157.837 168.262 156.017 170.273 156.017 170.273C156.017 170.273 153.85 168.71 153.478 164.9Z" fill="#ACC9C5"/>
<path d="M323.058 221.59C324.998 220.893 325.877 221.536 326.249 222.585C326.622 223.634 326.346 224.691 324.406 225.388C320.873 226.656 318.49 225.371 318.49 225.371C318.49 225.371 319.473 222.878 323.058 221.59Z" fill="#ACC9C5"/>
<path d="M317.738 139.864C319.168 138.373 320.239 138.558 321.037 139.331C321.834 140.104 322.056 141.174 320.626 142.664C318.022 145.379 315.319 145.292 315.319 145.292C315.319 145.292 315.096 142.62 317.738 139.864Z" fill="#ACC9C5"/>
<g opacity="0.6">
<path opacity="0.6" d="M271.985 196.849C274.741 196.393 275.704 197.137 275.881 198.223C276.059 199.309 275.384 200.324 272.628 200.78C267.61 201.611 264.862 200.046 264.862 200.046C264.862 200.046 266.893 197.691 271.985 196.849Z" fill="#ACC9C5"/>
</g>
<g opacity="0.6">
<path opacity="0.6" d="M265.799 190.828C267.296 188.659 268.427 188.493 269.274 189.083C270.12 189.673 270.36 190.796 268.863 192.964C266.134 196.916 263.286 197.756 263.286 197.756C263.286 197.756 263.032 194.837 265.799 190.828Z" fill="#ACC9C5"/>
</g>
<g opacity="0.4">
<path opacity="0.4" d="M172.056 83.7001C172.056 83.7001 169.895 79.5211 164.426 80.0455C158.958 80.5685 159.608 84.7582 157.004 84.3649C154.4 83.9715 150.755 84.3649 149.974 86.9827C149.193 89.6005 145.677 88.1612 145.547 90.3857C145.416 92.6101 149.582 94.182 154.4 92.2183C159.218 90.2545 161.562 93.7429 168.331 93.1117C175.101 92.4805 175.94 91.6953 179.948 92.0872C183.955 92.4805 183.861 89.7209 182.038 87.8883C180.215 86.0557 172.837 86.231 172.056 83.7001Z" fill="white"/>
</g>
<g opacity="0.4">
<path opacity="0.4" d="M241.603 38.2252C241.603 38.2252 239.987 35.1027 235.9 35.4931C231.813 35.8849 232.3 39.015 230.354 38.7207C228.409 38.428 225.683 38.7207 225.099 40.6768C224.516 42.633 221.889 41.5566 221.792 43.2199C221.695 44.8833 224.808 46.0573 228.409 44.5891C232.009 43.1224 233.76 45.7295 238.82 45.2569C243.879 44.7842 244.507 44.1972 247.502 44.4915C250.497 44.7842 250.426 42.7229 249.064 41.3538C247.701 39.9862 242.186 40.1158 241.603 38.2252Z" fill="white"/>
<path opacity="0.3" d="M41.6026 2.76592C41.6026 2.76592 39.9875 -0.356545 35.9004 0.0337637C31.8132 0.425597 32.3001 3.55569 30.3543 3.26143C28.4086 2.9687 25.6834 3.26143 25.0995 5.21755C24.5156 7.17366 21.8889 6.09726 21.7919 7.76065C21.6948 9.42403 24.8083 10.598 28.4086 9.12978C32.0089 7.66307 33.7605 10.2702 38.8197 9.79757C43.8789 9.32493 44.5068 8.73794 47.502 9.0322C50.4971 9.32493 50.4259 7.26362 49.064 5.89449C47.7006 4.52688 42.1864 4.65648 41.6026 2.76592Z" fill="white"/>
</g>
<g opacity="0.6">
<path opacity="0.6" d="M206.734 119.529C206.734 119.529 204.274 114.774 198.05 115.368C191.826 115.964 192.566 120.732 189.603 120.285C186.639 119.838 182.49 120.285 181.6 123.264C180.711 126.243 176.709 124.604 176.562 127.138C176.413 129.671 181.156 131.459 186.639 129.224C192.123 126.989 194.789 130.961 202.497 130.241C210.202 129.521 211.158 128.628 215.718 129.075C220.28 129.521 220.171 126.382 218.096 124.296C216.02 122.211 207.623 122.409 206.734 119.529Z" fill="white"/>
</g>
<path d="M127.316 222.402C127.316 222.402 87.3866 141.637 65.806 153.26C44.2254 164.882 104.593 201.47 115.469 225.348L127.316 222.402Z" fill="#ACC9C5"/>
<path d="M106.797 210.071C106.797 210.071 50.9028 139.52 28.1195 156.218C5.33624 172.915 78.351 194.75 93.829 215.831L106.797 210.071Z" fill="#92BCB5"/>
<path d="M99.5722 213.357C89.1489 198.604 72.8232 186.271 60.9622 178.523C48.1032 170.124 37.5844 165.157 37.4797 165.108L37.7876 164.455C37.8922 164.504 48.4581 169.493 61.358 177.919C73.2705 185.701 89.6737 198.095 100.162 212.94L99.5722 213.357Z" fill="#68A1BF"/>
<path d="M105.115 256.071C96.0265 255.897 105.57 265.083 94.6965 265.379C81.1127 264.19 75.5408 257.87 73.6042 254.786C72.5987 253.183 71.4158 251.697 70.0433 250.398C65.8803 246.452 64.7278 247.551 51.7854 249.841C40.8055 251.779 39.518 242.14 34.8576 235.164C34.7742 235.035 34.6862 234.91 34.5998 234.784C32.8011 232.201 30.4929 230.03 26.9821 229.025C23.2589 227.963 19.4539 226.334 16.122 224.3C15.846 224.133 15.5715 223.962 15.3016 223.785C8.69694 219.525 4.24584 213.663 6.64352 207.598C6.69964 207.455 6.7603 207.31 6.82399 207.168C7.27441 206.165 7.9144 205.156 8.76519 204.149C17.6325 193.666 26.6212 197.395 36.9959 199.01C42.7316 199.902 50.9164 192.626 58.9557 189.168C59.071 189.118 59.1862 189.071 59.3015 189.022C65.6832 186.364 71.9511 186.222 76.8026 194.608C76.8026 194.61 76.8041 194.61 76.8041 194.611C76.9027 194.782 77.0013 194.95 77.0983 195.116C87.9387 213.582 93.3043 206.935 108.567 210.355C111.406 210.992 113.961 211.698 115.649 213.203C131.39 227.228 120.825 246.632 105.115 256.071Z" fill="#CCD39C"/>
<path d="M106.432 238.044L106.978 237.341C106.667 237.101 75.1071 213.288 6.6845 207.154L6.60413 208.039C74.7689 214.151 106.122 237.806 106.432 238.044Z" fill="#C2C68E"/>
<path d="M65.5528 208.845C75.1314 201.335 77.1515 195.004 77.2334 194.739L76.3811 194.48C76.3613 194.543 74.3367 200.83 65.0023 208.148L65.5528 208.845Z" fill="#C2C68E"/>
<path d="M63.3493 218.304C66.1852 214.011 66.3733 207.568 63.8937 199.668C62.0359 193.753 59.3076 189.029 59.2803 188.984L58.5099 189.429C58.616 189.613 69.1274 207.946 62.6046 217.818L63.3493 218.304Z" fill="#C2C68E"/>
<path d="M45.4175 215.569C46.5534 214.742 47.1736 214.198 47.2009 214.172L46.6065 213.511C46.4775 213.626 33.4002 225.084 15.3441 223.343L15.2592 224.227C29.8075 225.63 41.1863 218.646 45.4175 215.569Z" fill="#C2C68E"/>
<path d="M35.164 235.475C39.5984 231.157 41.0831 226.647 41.5456 223.623C42.0506 220.333 41.5032 218.088 41.4804 217.993L40.616 218.208C40.6372 218.295 42.6618 226.933 34.5406 234.839L35.164 235.475Z" fill="#C2C68E"/>
<path d="M3.72781 180.737C0.734123 180.062 0.0622839 178.912 0.330715 177.741C0.599145 176.57 1.70775 175.822 4.70144 176.497C10.1535 177.726 12.3024 180.44 12.3024 180.44C12.3024 180.44 9.2587 181.984 3.72781 180.737Z" fill="#ACC9C5"/>
<path d="M71.9042 191.781L56.8144 276.655C56.4277 281.93 60.5815 286.425 65.8425 286.425H106.633L71.9042 191.781Z" fill="#EF8062"/>
<path d="M72.8414 200.181L59.8975 276.655C59.5108 281.93 63.6647 286.425 68.9256 286.425H109.717L72.8414 200.181Z" fill="#6DA49A"/>
<path d="M72.8414 200.181L68.2204 280.45C67.8337 285.725 71.9875 290.22 77.2485 290.22H118.039L72.8414 200.181Z" fill="#92BCB5"/>
<path d="M253.068 292.147H100.132C96.3617 292.147 93.0935 289.525 92.2564 285.83L74.3701 206.921L72.8414 200.181L71.8283 195.712C70.6772 190.629 74.5187 185.788 79.7053 185.788H232.643C236.413 185.788 239.681 188.409 240.518 192.105L242.349 200.182L243.877 206.923L260.945 282.223C262.096 287.305 258.253 292.147 253.068 292.147Z" fill="#E7F7F4"/>
<path d="M83.1539 246.418C83.0584 246.418 82.9734 246.353 82.9522 246.255L79.5354 231.178C79.5096 231.065 79.5794 230.954 79.6916 230.928C79.8038 230.902 79.9145 230.972 79.9403 231.085L83.3571 246.162C83.3829 246.275 83.3131 246.386 83.2009 246.412C83.1842 246.417 83.1691 246.418 83.1539 246.418Z" fill="#331832"/>
<path d="M121.917 292.356H100.011C96.1176 292.356 92.7963 289.691 91.9319 285.876L84.1216 251.418C84.0958 251.305 84.1656 251.194 84.2778 251.168C84.39 251.142 84.5007 251.212 84.5265 251.325L92.3368 285.783C93.1572 289.407 96.3132 291.938 100.011 291.938H121.917C122.033 291.938 122.125 292.031 122.125 292.147C122.125 292.261 122.033 292.356 121.917 292.356Z" fill="#331832"/>
<path d="M242.349 200.181H72.8414L71.8283 195.712C70.6772 190.629 74.5187 185.788 79.7053 185.788H232.643C236.413 185.788 239.681 188.409 240.518 192.105L242.349 200.181Z" fill="#EF8062"/>
<path d="M148.736 222.332H138.382C137.054 222.332 135.68 221.25 135.313 219.914L132.454 209.505C132.087 208.17 132.867 207.087 134.195 207.087H144.549C145.877 207.087 147.251 208.17 147.618 209.505L150.477 219.914C150.844 221.25 150.064 222.332 148.736 222.332Z" fill="#B8D5DC"/>
<path d="M168.482 222.332H158.128C156.8 222.332 155.426 221.25 155.059 219.914L152.2 209.505C151.833 208.17 152.612 207.087 153.941 207.087H164.294C165.623 207.087 166.997 208.17 167.364 209.505L170.223 219.914C170.59 221.25 169.81 222.332 168.482 222.332Z" fill="#B8D5DC"/>
<path d="M188.226 222.332H177.872C176.544 222.332 175.17 221.25 174.803 219.914L171.944 209.505C171.577 208.17 172.356 207.087 173.685 207.087H184.039C185.367 207.087 186.741 208.17 187.108 209.505L189.967 219.914C190.335 221.25 189.556 222.332 188.226 222.332Z" fill="#B8D5DC"/>
<path d="M114.665 242.069H104.311C102.983 242.069 101.609 240.986 101.242 239.651L98.3832 229.242C98.0162 227.906 98.7957 226.824 100.124 226.824H110.478C111.806 226.824 113.18 227.906 113.547 229.242L116.406 239.651C116.773 240.986 115.993 242.069 114.665 242.069Z" fill="#B8D5DC"/>
<path d="M134.411 242.069H124.057C122.729 242.069 121.355 240.986 120.988 239.651L118.129 229.242C117.762 227.906 118.541 226.824 119.87 226.824H130.223C131.552 226.824 132.926 227.906 133.293 229.242L136.152 239.651C136.519 240.986 135.739 242.069 134.411 242.069Z" fill="#B8D5DC"/>
<path d="M154.156 242.069H143.803C142.474 242.069 141.1 240.986 140.733 239.651L137.874 229.242C137.507 227.906 138.287 226.824 139.615 226.824H149.969C151.297 226.824 152.671 227.906 153.038 229.242L155.897 239.651C156.264 240.986 155.485 242.069 154.156 242.069Z" fill="#B8D5DC"/>
<path d="M173.902 242.069H163.548C162.22 242.069 160.846 240.986 160.479 239.651L157.62 229.242C157.253 227.906 158.033 226.824 159.361 226.824H169.715C171.043 226.824 172.417 227.906 172.784 229.242L175.643 239.651C176.01 240.986 175.23 242.069 173.902 242.069Z" fill="#B8D5DC"/>
<path d="M193.646 242.069H183.292C181.964 242.069 180.588 240.986 180.223 239.651L177.364 229.242C176.997 227.906 177.777 226.824 179.105 226.824H189.459C190.787 226.824 192.161 227.906 192.528 229.242L195.387 239.651C195.755 240.986 194.976 242.069 193.646 242.069Z" fill="#B8D5DC"/>
<path d="M120.085 261.805H109.732C108.403 261.805 107.029 260.723 106.662 259.387L103.803 248.978C103.436 247.643 104.216 246.56 105.544 246.56H115.898C117.226 246.56 118.6 247.643 118.967 248.978L121.826 259.387C122.193 260.723 121.414 261.805 120.085 261.805Z" fill="#B8D5DC"/>
<path d="M139.831 261.805H129.477C128.149 261.805 126.775 260.723 126.408 259.387L123.549 248.978C123.182 247.643 123.961 246.56 125.29 246.56H135.644C136.972 246.56 138.346 247.643 138.713 248.978L141.572 259.387C141.939 260.723 141.159 261.805 139.831 261.805Z" fill="#B8D5DC"/>
<path d="M159.576 261.805H149.223C147.894 261.805 146.52 260.723 146.153 259.387L143.295 248.978C142.928 247.643 143.707 246.56 145.036 246.56H155.389C156.718 246.56 158.092 247.643 158.459 248.978L161.317 259.387C161.684 260.723 160.905 261.805 159.576 261.805Z" fill="#B8D5DC"/>
<path d="M179.322 261.805H168.969C167.64 261.805 166.266 260.723 165.899 259.387L163.04 248.978C162.673 247.643 163.453 246.56 164.781 246.56H175.135C176.463 246.56 177.837 247.643 178.204 248.978L181.063 259.387C181.43 260.723 180.651 261.805 179.322 261.805Z" fill="#B8D5DC"/>
<path d="M199.066 261.805H188.713C187.384 261.805 186.01 260.723 185.643 259.387L182.784 248.978C182.417 247.643 183.197 246.56 184.525 246.56H194.879C196.207 246.56 197.581 247.643 197.948 248.978L200.807 259.387C201.176 260.723 200.396 261.805 199.066 261.805Z" fill="#B8D5DC"/>
<path d="M207.971 222.332H197.618C196.289 222.332 194.915 221.25 194.548 219.914L191.69 209.505C191.323 208.17 192.102 207.087 193.431 207.087H203.784C205.113 207.087 206.487 208.17 206.854 209.505L209.712 219.914C210.081 221.25 209.3 222.332 207.971 222.332Z" fill="#EF8062"/>
<path d="M227.717 222.332H217.363C216.035 222.332 214.661 221.25 214.294 219.914L211.435 209.505C211.068 208.17 211.848 207.087 213.176 207.087H223.53C224.858 207.087 226.232 208.17 226.599 209.505L229.458 219.914C229.826 221.25 229.045 222.332 227.717 222.332Z" fill="#EF8062"/>
<path d="M213.392 242.069H203.038C201.71 242.069 200.336 240.986 199.969 239.651L197.11 229.242C196.743 227.906 197.522 226.824 198.851 226.824H209.204C210.533 226.824 211.907 227.906 212.274 229.242L215.133 239.651C215.501 240.986 214.722 242.069 213.392 242.069Z" fill="#EF8062"/>
<path d="M233.137 242.069H222.784C221.455 242.069 220.081 240.986 219.714 239.651L216.855 229.242C216.488 227.906 217.268 226.824 218.596 226.824H228.95C230.278 226.824 231.652 227.906 232.019 229.242L234.878 239.651C235.247 240.986 234.466 242.069 233.137 242.069Z" fill="#EF8062"/>
<path d="M218.812 261.805H208.458C207.13 261.805 205.756 260.723 205.389 259.387L202.53 248.978C202.163 247.643 202.942 246.56 204.271 246.56H214.624C215.953 246.56 217.327 247.643 217.694 248.978L220.553 259.387C220.921 260.723 220.142 261.805 218.812 261.805Z" fill="#EF8062"/>
<path d="M238.557 261.805H228.204C226.875 261.805 225.501 260.723 225.134 259.387L222.275 248.978C221.908 247.643 222.688 246.56 224.016 246.56H234.37C235.699 246.56 237.073 247.643 237.44 248.978L240.298 259.387C240.667 260.723 239.886 261.805 238.557 261.805Z" fill="#EF8062"/>
<path d="M125.763 282.484H115.41C114.081 282.484 112.707 281.401 112.34 280.066L109.481 269.657C109.114 268.321 109.894 267.239 111.222 267.239H121.576C122.904 267.239 124.278 268.321 124.645 269.657L127.504 280.066C127.873 281.4 127.092 282.484 125.763 282.484Z" fill="#B8D5DC"/>
<path d="M145.509 282.484H135.155C133.827 282.484 132.453 281.401 132.086 280.066L129.227 269.657C128.86 268.321 129.639 267.239 130.968 267.239H141.321C142.65 267.239 144.024 268.321 144.391 269.657L147.25 280.066C147.617 281.4 146.837 282.484 145.509 282.484Z" fill="#B8D5DC"/>
<path d="M165.254 282.484H154.901C153.572 282.484 152.198 281.401 151.831 280.066L148.973 269.657C148.606 268.321 149.385 267.239 150.714 267.239H161.067C162.396 267.239 163.77 268.321 164.137 269.657L166.995 280.066C167.362 281.4 166.583 282.484 165.254 282.484Z" fill="#B8D5DC"/>
<path d="M95.8976 192.092C95.0423 192.092 94.3462 191.393 94.3462 190.533C94.3462 189.673 95.0423 188.973 95.8976 188.973C96.7529 188.973 97.449 189.673 97.449 190.533C97.449 191.393 96.7529 192.092 95.8976 192.092ZM95.8976 189.6C95.385 189.6 94.968 190.019 94.968 190.534C94.968 191.05 95.385 191.469 95.8976 191.469C96.4102 191.469 96.8273 191.05 96.8273 190.534C96.8273 190.019 96.4102 189.6 95.8976 189.6Z" fill="#DAEBE8"/>
<path d="M95.8566 190.918C95.7186 190.918 95.5867 190.839 95.526 190.703C95.4441 190.521 95.5245 190.304 95.7065 190.222C95.7429 190.205 99.3553 188.531 100.007 185.741C100.326 184.378 99.8831 182.945 98.6941 181.479C97.3868 179.868 94.2915 179.191 91.5724 180.908C89.208 182.4 88.5757 184.966 89.8799 187.775C89.9648 187.958 89.8859 188.174 89.7055 188.259C89.525 188.345 89.3081 188.266 89.2232 188.084C88.4422 186.404 88.2754 184.821 88.7258 183.384C89.1186 182.13 89.9694 181.06 91.1872 180.293C93.5651 178.791 97.3261 178.644 99.2567 181.02C100.597 182.672 101.087 184.317 100.713 185.911C100.406 187.221 99.4903 188.499 98.0662 189.606C97.0062 190.429 96.0462 190.868 96.0052 190.886C95.9567 190.908 95.9067 190.918 95.8566 190.918Z" fill="#331832"/>
<path d="M91.1827 185.794H87.6627V189.132H91.1827V185.794Z" fill="#EF8062"/>
<path d="M119.354 192.092C118.499 192.092 117.803 191.393 117.803 190.533C117.803 189.673 118.499 188.973 119.354 188.973C120.21 188.973 120.906 189.673 120.906 190.533C120.906 191.393 120.21 192.092 119.354 192.092ZM119.354 189.6C118.842 189.6 118.425 190.019 118.425 190.534C118.425 191.05 118.842 191.469 119.354 191.469C119.867 191.469 120.284 191.05 120.284 190.534C120.284 190.019 119.867 189.6 119.354 189.6Z" fill="#DAEBE8"/>
<path d="M119.313 190.918C119.175 190.918 119.043 190.839 118.983 190.703C118.901 190.521 118.981 190.304 119.163 190.222C119.2 190.205 122.812 188.531 123.464 185.741C123.783 184.378 123.34 182.945 122.151 181.479C120.844 179.868 117.748 179.191 115.029 180.908C112.665 182.4 112.032 184.966 113.337 187.775C113.421 187.958 113.343 188.174 113.162 188.259C112.982 188.345 112.765 188.266 112.68 188.084C111.899 186.404 111.732 184.821 112.182 183.384C112.575 182.13 113.426 181.06 114.644 180.293C117.022 178.791 120.783 178.644 122.713 181.02C124.054 182.672 124.544 184.317 124.169 185.911C123.863 187.221 122.947 188.499 121.523 189.606C120.463 190.429 119.503 190.868 119.462 190.886C119.413 190.908 119.362 190.918 119.313 190.918Z" fill="#331832"/>
<path d="M114.638 185.794H111.118V189.132H114.638V185.794Z" fill="#EF8062"/>
<path d="M142.809 192.092C141.954 192.092 141.258 191.393 141.258 190.533C141.258 189.673 141.954 188.973 142.809 188.973C143.665 188.973 144.361 189.673 144.361 190.533C144.361 191.393 143.665 192.092 142.809 192.092ZM142.809 189.6C142.297 189.6 141.88 190.019 141.88 190.534C141.88 191.05 142.297 191.469 142.809 191.469C143.322 191.469 143.739 191.05 143.739 190.534C143.739 190.019 143.322 189.6 142.809 189.6Z" fill="#DAEBE8"/>
<path d="M142.768 190.918C142.63 190.918 142.498 190.839 142.438 190.703C142.356 190.521 142.436 190.304 142.618 190.222C142.655 190.205 146.267 188.531 146.919 185.741C147.238 184.378 146.795 182.945 145.606 181.479C144.299 179.868 141.203 179.191 138.484 180.908C136.12 182.4 135.487 184.966 136.792 187.775C136.877 187.958 136.798 188.174 136.617 188.259C136.437 188.345 136.22 188.266 136.135 188.084C135.354 186.404 135.187 184.821 135.638 183.384C136.03 182.13 136.881 181.06 138.099 180.293C140.477 178.791 144.238 178.644 146.169 181.02C147.509 182.672 147.999 184.317 147.624 185.911C147.318 187.221 146.402 188.499 144.978 189.606C143.918 190.429 142.958 190.868 142.917 190.886C142.869 190.908 142.818 190.918 142.768 190.918Z" fill="#331832"/>
<path d="M138.094 185.794H134.574V189.132H138.094V185.794Z" fill="#EF8062"/>
<path d="M166.264 192.092C165.409 192.092 164.713 191.393 164.713 190.533C164.713 189.673 165.409 188.973 166.264 188.973C167.12 188.973 167.816 189.673 167.816 190.533C167.816 191.393 167.12 192.092 166.264 192.092ZM166.264 189.6C165.752 189.6 165.335 190.019 165.335 190.534C165.335 191.05 165.752 191.469 166.264 191.469C166.777 191.469 167.194 191.05 167.194 190.534C167.194 190.019 166.777 189.6 166.264 189.6Z" fill="#DAEBE8"/>
<path d="M166.223 190.918C166.085 190.918 165.954 190.839 165.893 190.703C165.811 190.521 165.891 190.304 166.073 190.222C166.11 190.205 169.722 188.531 170.374 185.741C170.693 184.378 170.25 182.945 169.061 181.479C167.754 179.868 164.658 179.191 161.939 180.908C159.575 182.4 158.943 184.966 160.247 187.775C160.332 187.958 160.253 188.174 160.072 188.259C159.892 188.345 159.675 188.266 159.59 188.084C158.809 186.404 158.642 184.821 159.093 183.384C159.485 182.13 160.336 181.06 161.554 180.293C163.932 178.791 167.693 178.644 169.624 181.02C170.964 182.672 171.454 184.317 171.079 185.911C170.773 187.221 169.857 188.499 168.433 189.606C167.373 190.429 166.413 190.868 166.372 190.886C166.324 190.908 166.274 190.918 166.223 190.918Z" fill="#331832"/>
<path d="M161.549 185.794H158.03V189.132H161.549V185.794Z" fill="#EF8062"/>
<path d="M189.721 192.092C188.866 192.092 188.17 191.393 188.17 190.533C188.17 189.673 188.866 188.973 189.721 188.973C190.576 188.973 191.273 189.673 191.273 190.533C191.273 191.393 190.576 192.092 189.721 192.092ZM189.721 189.6C189.208 189.6 188.791 190.019 188.791 190.534C188.791 191.05 189.208 191.469 189.721 191.469C190.234 191.469 190.651 191.05 190.651 190.534C190.651 190.019 190.234 189.6 189.721 189.6Z" fill="#DAEBE8"/>
<path d="M189.68 190.918C189.542 190.918 189.41 190.839 189.35 190.703C189.268 190.521 189.348 190.304 189.53 190.222C189.566 190.205 193.179 188.531 193.831 185.741C194.149 184.378 193.707 182.945 192.518 181.479C191.21 179.868 188.115 179.192 185.396 180.908C183.032 182.4 182.399 184.966 183.703 187.775C183.788 187.958 183.709 188.174 183.529 188.259C183.349 188.345 183.132 188.266 183.047 188.084C182.266 186.404 182.099 184.821 182.549 183.384C182.942 182.13 183.793 181.06 185.011 180.293C187.389 178.791 191.15 178.644 193.08 181.02C194.421 182.672 194.911 184.317 194.536 185.911C194.23 187.221 193.314 188.499 191.89 189.606C190.83 190.429 189.87 190.868 189.829 190.886C189.78 190.908 189.729 190.918 189.68 190.918Z" fill="#331832"/>
<path d="M185.005 185.794H181.485V189.132H185.005V185.794Z" fill="#EF8062"/>
<path d="M213.176 192.092C212.321 192.092 211.625 191.393 211.625 190.533C211.625 189.673 212.321 188.973 213.176 188.973C214.032 188.973 214.728 189.673 214.728 190.533C214.728 191.393 214.032 192.092 213.176 192.092ZM213.176 189.6C212.664 189.6 212.246 190.019 212.246 190.534C212.246 191.05 212.664 191.469 213.176 191.469C213.689 191.469 214.106 191.05 214.106 190.534C214.106 190.019 213.689 189.6 213.176 189.6Z" fill="#DAEBE8"/>
<path d="M213.135 190.918C212.997 190.918 212.865 190.839 212.805 190.703C212.723 190.521 212.803 190.304 212.985 190.222C213.022 190.205 216.634 188.531 217.286 185.741C217.605 184.378 217.162 182.945 215.973 181.479C214.666 179.868 211.57 179.191 208.851 180.908C206.487 182.4 205.854 184.966 207.159 187.775C207.243 187.958 207.165 188.174 206.984 188.259C206.804 188.345 206.587 188.266 206.502 188.084C205.721 186.404 205.554 184.821 206.004 183.384C206.397 182.13 207.248 181.06 208.466 180.293C210.844 178.791 214.605 178.644 216.535 181.02C217.876 182.672 218.366 184.317 217.991 185.911C217.685 187.221 216.769 188.499 215.345 189.606C214.285 190.429 213.325 190.868 213.284 190.886C213.235 190.908 213.185 190.918 213.135 190.918Z" fill="#331832"/>
<path d="M208.461 185.794H204.941V189.132H208.461V185.794Z" fill="#EF8062"/>
<path d="M79.9431 295.921C79.9431 295.921 74.9218 290.815 76.6507 287.905C78.378 284.996 81.2929 294.153 81.2929 294.153C81.2929 294.153 79.7809 283.327 82.9125 283.138C86.0442 282.95 82.9125 294.153 82.9125 294.153C82.9125 294.153 84.0727 291.542 85.2071 291.38C86.3415 291.219 86.0169 293.595 83.9923 295.922H79.9431V295.921Z" fill="#B8D5DC"/>
<path d="M80.3028 296.05C80.2892 296.035 78.8515 294.567 77.6761 292.711C76.0716 290.179 75.6894 288.168 76.5402 286.735C76.8587 286.199 77.2394 285.954 77.6731 286.004C78.5391 286.103 79.5551 287.469 80.6956 290.06C81.0429 290.851 81.3523 291.642 81.5934 292.296C81.3174 289.467 80.9959 283.827 82.5534 281.914C82.8946 281.494 83.3101 281.269 83.7894 281.24C84.2565 281.212 84.6401 281.38 84.9283 281.74C86.3266 283.486 85.0572 289.613 84.3596 292.479C84.8798 291.636 85.6198 290.696 86.3766 290.587C86.736 290.535 87.0196 290.671 87.1789 290.967C87.6293 291.804 86.9984 293.931 85.1618 296.042L84.8858 295.8C86.692 293.725 87.191 291.763 86.8558 291.142C86.7694 290.984 86.6329 290.923 86.4266 290.952C85.4545 291.09 84.3202 293.193 83.9653 293.99L83.6225 293.865C83.6301 293.841 84.3141 291.377 84.7751 288.678C85.3772 285.149 85.3317 282.828 84.6417 281.97C84.4293 281.705 84.1579 281.584 83.8091 281.606C83.4299 281.628 83.1115 281.805 82.8339 282.145C80.867 284.562 82.1302 293.797 82.1424 293.89L81.7875 293.972C81.1324 291.915 79.1093 286.541 77.6306 286.37C77.347 286.338 77.0938 286.518 76.8526 286.924C74.9888 290.063 80.5045 295.734 80.5606 295.791L80.3028 296.05Z" fill="#444092"/>
<path d="M39.4331 288.216C39.4331 288.216 32.9847 281.657 35.2034 277.921C37.4221 274.185 41.1665 285.946 41.1665 285.946C41.1665 285.946 39.2253 272.04 43.2472 271.798C47.2691 271.557 43.2472 285.946 43.2472 285.946C43.2472 285.946 44.738 282.591 46.1939 282.383C47.6498 282.176 47.2343 285.228 44.6334 288.216H39.4331Z" fill="#B8D5DC"/>
<path d="M39.8956 288.383C39.8774 288.364 38.0317 286.477 36.5212 284.094C34.4602 280.84 33.9689 278.259 35.0623 276.419C35.4702 275.731 35.9601 275.416 36.5182 275.48C38.4109 275.698 40.4855 280.625 41.5547 283.545C41.4425 282.377 41.3242 280.84 41.2802 279.223C41.1558 274.633 41.6624 271.606 42.7861 270.226C43.2244 269.688 43.7582 269.396 44.374 269.36C44.976 269.323 45.4674 269.54 45.8374 270.002C47.6346 272.243 46.0028 280.115 45.1065 283.797C45.7753 282.714 46.7262 281.505 47.6968 281.368C48.1563 281.302 48.5233 281.475 48.728 281.854C49.3073 282.929 48.4975 285.661 46.1377 288.374L45.7844 288.063C48.1032 285.397 48.7447 282.876 48.3155 282.08C48.2048 281.876 48.0304 281.798 47.7635 281.836C46.5154 282.014 45.0579 284.714 44.603 285.739L44.1617 285.579C44.1708 285.547 45.0504 282.383 45.6418 278.916C46.4153 274.383 46.3561 271.403 45.472 270.299C45.199 269.957 44.8471 269.805 44.4028 269.832C43.916 269.861 43.5065 270.089 43.1501 270.526C40.6235 273.63 42.2447 285.492 42.2614 285.611L41.8049 285.716C40.9632 283.074 38.3654 276.17 36.4651 275.951C36.1027 275.908 35.7751 276.141 35.4657 276.661C33.071 280.692 40.1564 287.979 40.2292 288.052L39.8956 288.383Z" fill="#444092"/>
<path d="M186.786 295.617C186.786 295.617 181.976 290.725 183.632 287.939C185.286 285.152 188.08 293.925 188.08 293.925C188.08 293.925 186.632 283.553 189.631 283.373C192.631 283.193 189.631 293.925 189.631 293.925C189.631 293.925 190.743 291.423 191.829 291.267C192.915 291.112 192.605 293.39 190.666 295.617H186.786Z" fill="#B8D5DC"/>
<path d="M187.129 295.741C187.116 295.727 185.739 294.32 184.613 292.542C183.075 290.116 182.71 288.189 183.526 286.817C183.831 286.305 184.195 286.068 184.612 286.117C186.024 286.28 187.571 289.955 188.368 292.132C188.285 291.261 188.195 290.115 188.164 288.907C188.071 285.484 188.449 283.226 189.286 282.196C189.612 281.795 190.011 281.578 190.47 281.549C190.919 281.523 191.286 281.683 191.562 282.028C192.903 283.7 191.685 289.57 191.018 292.318C191.517 291.51 192.226 290.609 192.95 290.505C193.294 290.456 193.565 290.584 193.719 290.868C194.151 291.67 193.546 293.708 191.787 295.73L191.523 295.498C193.252 293.512 193.731 291.63 193.411 291.036C193.329 290.883 193.197 290.825 193 290.854C192.069 290.987 190.983 293.001 190.642 293.766L190.312 293.647C190.319 293.624 190.975 291.263 191.417 288.677C191.993 285.295 191.949 283.074 191.289 282.251C191.084 281.996 190.825 281.883 190.491 281.901C190.129 281.923 189.823 282.092 189.557 282.418C187.672 284.733 188.882 293.58 188.895 293.67L188.553 293.748C187.925 291.778 185.987 286.628 184.571 286.465C184.299 286.433 184.057 286.606 183.826 286.995C182.04 290.003 187.325 295.436 187.378 295.491L187.129 295.741Z" fill="#444092"/>
<path d="M211.616 309.221C211.616 309.221 206.62 304.141 208.34 301.248C210.058 298.354 212.959 307.464 212.959 307.464C212.959 307.464 211.455 296.692 214.57 296.504C217.685 296.317 214.57 307.464 214.57 307.464C214.57 307.464 215.724 304.864 216.852 304.704C217.981 304.544 217.658 306.907 215.644 309.221H211.616Z" fill="#B8D5DC"/>
<path d="M211.974 309.35C211.96 309.334 210.53 307.874 209.361 306.027C207.764 303.507 207.384 301.508 208.231 300.083C208.546 299.551 208.925 299.305 209.359 299.356C210.22 299.455 211.232 300.813 212.365 303.391C212.711 304.178 213.017 304.965 213.258 305.616C212.984 302.801 212.664 297.191 214.214 295.286C214.553 294.87 214.966 294.644 215.443 294.615C215.909 294.588 216.29 294.756 216.576 295.112C217.969 296.849 216.705 302.945 216.011 305.797C216.529 304.959 217.265 304.022 218.017 303.916C218.373 303.865 218.657 303.998 218.816 304.292C219.265 305.125 218.637 307.241 216.81 309.342L216.535 309.101C218.331 307.037 218.828 305.084 218.496 304.468C218.411 304.309 218.275 304.25 218.069 304.279C217.101 304.416 215.973 306.508 215.621 307.302L215.28 307.178C215.286 307.154 215.968 304.702 216.426 302.018C217.025 298.506 216.98 296.198 216.294 295.343C216.082 295.079 215.81 294.96 215.466 294.981C215.089 295.004 214.772 295.18 214.496 295.518C212.538 297.922 213.795 307.11 213.807 307.203L213.454 307.284C212.802 305.238 210.789 299.891 209.318 299.72C209.036 299.688 208.784 299.868 208.545 300.27C206.69 303.393 212.178 309.035 212.234 309.092L211.974 309.35Z" fill="#444092"/>
<path d="M135.985 310.266C135.985 310.266 130.628 304.817 132.471 301.714C134.314 298.612 137.424 308.38 137.424 308.38C137.424 308.38 135.812 296.829 139.151 296.628C142.492 296.427 139.151 308.38 139.151 308.38C139.151 308.38 140.39 305.593 141.599 305.421C142.809 305.248 142.464 307.784 140.303 310.266H135.985Z" fill="#B8D5DC"/>
<path d="M136.37 310.403C136.355 310.388 134.822 308.821 133.567 306.84C131.855 304.138 131.447 301.993 132.356 300.464C132.695 299.894 133.102 299.632 133.564 299.685C134.488 299.792 135.572 301.248 136.789 304.012C137.16 304.856 137.489 305.7 137.746 306.398C137.451 303.379 137.107 297.361 138.769 295.32C139.133 294.873 139.576 294.631 140.089 294.6C140.588 294.57 140.997 294.75 141.305 295.134C142.797 296.995 141.443 303.533 140.698 306.593C141.253 305.693 142.044 304.69 142.85 304.574C143.232 304.52 143.537 304.663 143.707 304.978C144.188 305.872 143.515 308.141 141.555 310.394L141.261 310.135C143.187 307.921 143.719 305.826 143.363 305.166C143.272 304.997 143.126 304.931 142.905 304.963C141.868 305.111 140.657 307.354 140.28 308.206L139.914 308.073C139.922 308.048 140.653 305.419 141.144 302.539C141.787 298.773 141.737 296.299 141.003 295.381C140.776 295.097 140.486 294.971 140.114 294.992C139.71 295.016 139.37 295.205 139.074 295.568C136.975 298.147 138.322 308 138.337 308.099L137.958 308.186C137.259 305.992 135.101 300.258 133.522 300.075C133.222 300.04 132.949 300.234 132.692 300.667C130.703 304.016 136.588 310.066 136.649 310.127L136.37 310.403Z" fill="#444092"/>
<path d="M267.262 281.821C267.262 281.821 264.54 279.05 265.476 277.474C266.413 275.896 267.993 280.862 267.993 280.862C267.993 280.862 267.173 274.99 268.871 274.888C270.57 274.786 268.871 280.862 268.871 280.862C268.871 280.862 269.5 279.445 270.115 279.357C270.729 279.27 270.555 280.558 269.457 281.819H267.262V281.821Z" fill="#B8D5DC"/>
<path d="M267.457 281.891C267.449 281.883 266.67 281.086 266.033 280.079C265.162 278.706 264.956 277.616 265.417 276.838C265.59 276.548 265.795 276.414 266.031 276.442C266.501 276.495 267.052 277.236 267.671 278.642C267.859 279.07 268.027 279.5 268.158 279.854C268.007 278.32 267.833 275.26 268.678 274.222C268.863 273.995 269.089 273.871 269.348 273.856C269.601 273.841 269.809 273.932 269.965 274.127C270.724 275.074 270.035 278.398 269.657 279.951C269.939 279.494 270.341 278.985 270.751 278.925C270.945 278.898 271.1 278.971 271.186 279.131C271.43 279.585 271.089 280.738 270.093 281.883L269.944 281.752C270.924 280.627 271.194 279.563 271.013 279.226C270.966 279.139 270.893 279.107 270.78 279.122C270.252 279.197 269.638 280.337 269.445 280.77L269.259 280.703C269.274 280.65 270.728 275.394 269.812 274.251C269.697 274.106 269.548 274.043 269.36 274.054C269.155 274.066 268.981 274.162 268.831 274.347C267.765 275.658 268.449 280.666 268.456 280.717L268.264 280.761C267.909 279.645 266.811 276.731 266.009 276.638C265.854 276.62 265.717 276.719 265.587 276.939C264.575 278.642 267.568 281.717 267.598 281.747L267.457 281.891Z" fill="#444092"/>
<path d="M215.419 229.46C215.419 229.46 211.842 234.648 207.283 235.191C204.58 235.513 199.832 232.622 199.832 232.622L212.95 223.486L215.419 229.46Z" fill="#FFB27D"/>
<path d="M250.535 296.825C250.535 296.825 250.399 299.453 248.609 300.147C246.818 300.841 241.671 301.371 243.542 303.114C244.616 304.114 249.816 303.628 251.28 303.667C252.743 303.707 254.101 304.385 255.214 303.429C256.439 302.379 255.388 296.954 255.388 296.954C255.388 296.954 254.108 297.581 252.972 297.521C251.336 297.436 250.535 296.825 250.535 296.825Z" fill="#331832"/>
<path d="M239.484 221.41C239.825 226.868 237.06 242.727 237.511 253.86C238.421 276.34 246.688 298.22 251.908 298.105L253.42 298.207C256.462 298.413 259.005 295.85 258.866 292.717C258.866 292.717 256.23 271.209 255.808 264.723C254.957 251.631 261.162 228.013 261.162 228.013C261.162 228.013 238.923 212.456 239.484 221.41Z" fill="#FFDC84"/>
<path d="M265.789 293.964C265.789 293.964 265.652 296.593 263.863 297.287C262.072 297.98 256.924 298.511 258.796 300.254C259.869 301.254 265.07 300.767 266.533 300.807C267.997 300.847 269.354 301.525 270.467 300.569C271.693 299.519 270.642 294.094 270.642 294.094C270.642 294.094 269.362 294.721 268.226 294.661C266.589 294.576 265.789 293.964 265.789 293.964Z" fill="#331832"/>
<path d="M254.736 218.549C255.077 224.008 252.313 239.867 252.763 251C253.673 273.479 261.94 295.359 267.16 295.245L268.672 295.347C271.714 295.553 274.257 292.99 274.118 289.857C274.118 289.857 271.482 268.349 271.06 261.863C270.604 254.834 272.179 244.772 273.738 236.96C275.288 229.187 272.609 217.56 265.482 214.168C260.397 211.748 254.475 214.375 254.736 218.549Z" fill="#FFDC84"/>
<path d="M277.917 198.394C270.896 184.202 251.213 181.551 251.213 181.551C251.213 181.551 263.828 214.207 266.383 212.244C270.748 208.888 277.477 206.558 277.917 198.394Z" fill="#6DA49A"/>
<path d="M305.647 181.338L313.199 178.695C313.827 178.476 314.633 178.997 315.041 179.888L315.382 180.635C315.808 181.568 315.641 182.562 315.009 182.853L307.85 186.158L305.647 181.338Z" fill="#331832"/>
<path d="M178.546 235.886C178.546 235.886 176.53 237.251 176.82 237.676C177.287 238.364 179.295 237.527 179.295 237.527L178.546 235.886Z" fill="#331832"/>
<path d="M259.868 195.351C259.452 195.351 259.052 195.122 258.85 194.724C258.565 194.16 258.79 193.471 259.351 193.184L295.137 174.92C296.443 174.254 298.043 174.55 299.025 175.64C299.047 175.663 299.066 175.687 299.086 175.712L301.99 179.516C302.374 180.017 302.28 180.737 301.78 181.121C301.281 181.507 300.565 181.411 300.183 180.909L297.312 177.149C297.015 176.844 296.55 176.765 296.168 176.96L260.382 195.224C260.218 195.311 260.042 195.351 259.868 195.351Z" fill="#331832"/>
<path d="M194.112 237.543L309.164 189.653C310.263 189.132 310.811 184.952 308.577 181.179L307.327 178.444C306.824 177.341 305.535 176.846 304.428 177.331L189.811 225.846L194.112 237.543Z" fill="#366F90"/>
<path d="M287.909 184.321C287.909 184.321 292.882 189.726 292.148 196.735L283.766 200.223C283.766 200.223 284.056 193.009 279.225 187.997L287.909 184.321Z" fill="#331832"/>
<path d="M178.55 235.895L179.236 237.396C179.427 237.813 179.851 238.077 180.32 238.069L192.404 237.862C194.172 237.832 195.742 236.621 196.15 234.915C196.447 233.668 196.389 232.068 195.354 230.208C194.03 227.828 192.759 226.662 191.708 226.121C190.593 225.546 189.215 225.75 188.261 226.598L178.734 235.058C178.494 235.272 178.42 235.61 178.55 235.895Z" fill="#92A5E6"/>
<path d="M294.367 192.44C294.297 192.44 294.232 192.399 294.204 192.329C294.168 192.239 294.212 192.135 294.301 192.1L307.288 186.851C307.377 186.814 307.479 186.858 307.515 186.948C307.552 187.038 307.508 187.142 307.418 187.177L294.432 192.426C294.411 192.437 294.389 192.44 294.367 192.44Z" fill="#331832"/>
<path d="M242.757 181.315L240.506 178.334L239.851 177.466L236 172.365L237.681 178.174L238.691 181.661L239.011 182.765C239.228 183.513 238.798 183.833 238.428 184.675C238.278 185.017 237.289 187.11 239.256 187.233C241.706 187.387 245.271 184.673 246.205 182.393C246.192 182.393 243.485 182.278 242.757 181.315Z" fill="#FFB27D"/>
<path d="M237.751 180.888C240.918 180.524 243.155 177.326 242.748 173.747C242.34 170.167 239.443 167.56 236.276 167.925C233.108 168.289 230.871 171.487 231.279 175.066C231.686 178.646 234.584 181.252 237.751 180.888Z" fill="#FFB27D"/>
<path d="M233.208 173.318C230.115 174.496 228.026 173.327 227.462 171.778C226.74 169.791 227.493 167.556 229.315 167.764C231.14 167.971 229.848 166.376 231.295 165.667C233.999 164.341 235.162 166.036 237.506 165.338C240.599 164.417 245.679 167.977 244.291 172.313C244.291 172.313 235.652 172.388 233.208 173.318Z" fill="#331832"/>
<path d="M229.738 172.249C229.738 172.249 234.099 174.115 234.229 175.957C234.359 177.8 234.695 178.424 236.953 178.66C239.211 178.897 237.981 180.95 240.62 180.168C243.26 179.386 245.48 175.423 243.885 170.702C242.996 168.069 240.794 166.899 240.794 166.899L229.738 172.249Z" fill="#331832"/>
<path d="M232.514 176.459C232.723 175.828 233.369 175.439 233.958 175.591C234.545 175.744 234.851 176.379 234.642 177.011C234.432 177.642 233.786 178.031 233.198 177.878C232.611 177.726 232.305 177.091 232.514 176.459Z" fill="#FFB27D"/>
<path d="M245.961 173.191C245.934 173.191 245.907 173.178 245.891 173.153C245.524 172.568 244.751 172.426 244.743 172.425C244.699 172.417 244.669 172.374 244.677 172.328C244.684 172.283 244.728 172.254 244.772 172.261C244.807 172.267 245.626 172.418 246.031 173.063C246.055 173.101 246.043 173.153 246.005 173.178C245.99 173.187 245.975 173.191 245.961 173.191Z" fill="#331832"/>
<path d="M244.634 172.06C244.602 172.06 244.571 172.04 244.558 172.008C244.542 171.966 244.561 171.918 244.604 171.9C244.611 171.897 245.441 171.549 245.356 170.898C245.35 170.853 245.382 170.811 245.427 170.805C245.471 170.799 245.514 170.831 245.52 170.877C245.622 171.655 244.706 172.037 244.668 172.052C244.654 172.057 244.643 172.06 244.634 172.06Z" fill="#331832"/>
<path d="M227.397 167.655C227.371 167.655 227.345 167.643 227.33 167.62C227.304 167.584 227.312 167.532 227.35 167.506C228.001 167.041 228.44 167.151 228.867 167.259C229.083 167.314 229.306 167.369 229.566 167.355C229.707 167.347 229.811 167.293 229.889 167.19C230.151 166.838 229.98 166.065 229.978 166.058C229.968 166.013 229.996 165.969 230.04 165.958C230.084 165.949 230.128 165.977 230.139 166.021C230.146 166.056 230.328 166.878 230.021 167.289C229.914 167.431 229.766 167.509 229.576 167.52C229.293 167.536 229.056 167.477 228.827 167.419C228.402 167.312 228.034 167.221 227.446 167.642C227.43 167.651 227.414 167.655 227.397 167.655Z" fill="#331832"/>
<path d="M236.245 165.323C235.521 165.323 234.951 165.089 234.915 165.074C234.872 165.057 234.852 165.009 234.871 164.966C234.887 164.923 234.936 164.903 234.978 164.922C234.992 164.928 236.32 165.469 237.458 164.879C237.497 164.858 237.547 164.874 237.569 164.914C237.59 164.955 237.573 165.004 237.534 165.025C237.1 165.25 236.648 165.323 236.245 165.323Z" fill="#331832"/>
<path d="M233.701 177.922C233.68 177.922 233.662 177.906 233.662 177.883C233.662 177.861 233.679 177.843 233.701 177.842C233.733 177.842 234.481 177.811 234.66 176.753C234.663 176.732 234.683 176.716 234.705 176.721C234.727 176.724 234.742 176.745 234.737 176.767C234.548 177.893 233.71 177.922 233.701 177.922Z" fill="#331832"/>
<path d="M238.544 234.616C243.612 232.927 261.626 226.465 273.286 225.4C273.286 225.4 274.163 224.397 273.44 223.143C271.285 219.415 256.321 222.067 256.321 222.067L244.22 226.531L240.743 228.614L237.631 233.624C237.629 233.624 237.814 234.859 238.544 234.616Z" fill="#331832"/>
<path d="M258.656 186.25C258.656 186.25 253.741 178.175 241.512 182.348C220.201 189.621 230.224 205.169 237.629 233.624C237.629 233.624 252.211 225.943 273.438 223.143C273.438 223.143 270.294 207.436 263.5 195.572C261.708 192.438 260.625 188.834 258.656 186.25Z" fill="#6DA49A"/>
<path d="M239.058 183.298C239.058 183.298 232.255 185.732 228.8 192.289C225.345 198.847 226.499 204.171 222.796 210.309C220.066 214.834 225.565 220.961 229.598 219.698C233.63 218.434 236.231 214.297 236.231 214.297L239.058 183.298Z" fill="#6DA49A"/>
<path d="M271.631 216.192C268.327 204.024 260.983 190.52 260.908 190.385L261.046 190.309C261.121 190.444 268.475 203.965 271.782 216.151L271.631 216.192Z" fill="#331832"/>
<path d="M214.96 228.569C214.96 228.569 212.012 226.601 209.095 228.76C208.05 229.535 205.192 228.479 205.638 229.562C206.083 230.644 209.415 232.038 209.141 233.038C208.868 234.038 214.96 228.569 214.96 228.569Z" fill="#FFB27D"/>
<path d="M256.959 277.664C254.741 267.934 256.433 257.783 258.244 250.982C260.205 243.615 262.724 238.478 262.749 238.426L262.998 238.55C262.972 238.6 260.464 243.717 258.511 251.059C256.709 257.829 255.024 267.93 257.231 277.602L256.959 277.664Z" fill="#331832"/>
<path d="M213.614 232.128C216.552 233.493 235.858 224.848 238.002 215.066C240.282 204.665 222.794 210.31 222.794 210.31L210.815 227.684C210.813 227.682 210.637 230.745 213.614 232.128Z" fill="#6DA49A"/>
<path d="M234.185 221.664L234.056 221.571C238.924 214.756 240.599 204.791 240.615 204.692L240.772 204.718C240.756 204.819 239.076 214.82 234.185 221.664Z" fill="#331832"/>
<path d="M161.651 245.155C161.201 245.155 160.784 245.101 160.409 244.982C159.543 244.711 158.949 244.124 158.641 243.24C158.016 241.444 158.83 238.547 160.876 235.295C162.831 232.186 165.496 229.423 168.005 227.903C170.823 226.196 173.247 226.199 174.828 227.911C176.008 229.188 176.478 230.58 176.225 232.047C175.926 233.787 174.633 235.581 172.384 237.38C170.729 238.704 169.184 239.516 169.12 239.551C168.976 239.626 168.8 239.57 168.726 239.426C168.652 239.283 168.708 239.105 168.85 239.03C168.911 238.998 174.992 235.775 175.65 231.947C175.87 230.67 175.449 229.448 174.401 228.312C172.642 226.406 170.116 227.312 168.309 228.408C163.045 231.597 158.02 239.669 159.196 243.047C159.443 243.756 159.898 244.206 160.586 244.423C164.74 245.728 175.218 238.129 175.324 238.053C175.455 237.958 175.638 237.987 175.732 238.118C175.828 238.249 175.797 238.434 175.667 238.528C175.262 238.821 166.525 245.153 161.651 245.155Z" fill="#EF8062"/>
</svg>
